{
    "asset" : {
        "generator" : "Khronos glTF Blender I/O v1.0.5",
        "version" : "2.0"
    },
    "scene" : 0,
    "scenes" : [
        {
            "name" : "Scene",
            "nodes" : [
                0
            ]
        }
    ],
    "nodes" : [
        {
            "mesh" : 0,
            "name" : "farmhouse_obj",
            "rotation" : [
                0.7071068286895752,
                0,
                0,
                0.7071067094802856
            ]
        }
    ],
    "materials" : [
        {
            "doubleSided" : true,
            "name" : "lambert13SG",
            "pbrMetallicRoughness" : {
                "baseColorTexture" : {
                    "index" : 0,
                    "texCoord" : 0
                },
                "metallicFactor" : 0,
                "roughnessFactor" : 1
            }
        }
    ],
    "meshes" : [
        {
            "name" : "farmhouse_obj",
            "primitives" : [
                {
                    "attributes" : {
                        "POSITION" : 0,
                        "NORMAL" : 1,
                        "TEXCOORD_0" : 2
                    },
                    "indices" : 3,
                    "material" : 0
                }
            ]
        }
    ],
    "textures" : [
        {
            "source" : 0
        }
    ],
    "images" : [
        {
            "bufferView" : 4,
            "mimeType" : "image/jpeg",
            "name" : "Farmhouse Texture"
        }
    ],
    "accessors" : [
        {
            "bufferView" : 0,
            "componentType" : 5126,
            "count" : 552,
            "max" : [
                12.222922325134277,
                29.17242431640625,
                -0.08377400040626526
            ],
            "min" : [
                -12.056731224060059,
                -21.191490173339844,
                -21.366769790649414
            ],
            "type" : "VEC3"
        },
        {
            "bufferView" : 1,
            "componentType" : 5126,
            "count" : 552,
            "type" : "VEC3"
        },
        {
            "bufferView" : 2,
            "componentType" : 5126,
            "count" : 552,
            "type" : "VEC2"
        },
        {
            "bufferView" : 3,
            "componentType" : 5123,
            "count" : 1002,
            "type" : "SCALAR"
        }
    ],
    "bufferViews" : [
        {
            "buffer" : 0,
            "byteLength" : 6624,
            "byteOffset" : 0
        },
        {
            "buffer" : 0,
            "byteLength" : 6624,
            "byteOffset" : 6624
        },
        {
            "buffer" : 0,
            "byteLength" : 4416,
            "byteOffset" : 13248
        },
        {
            "buffer" : 0,
            "byteLength" : 2004,
            "byteOffset" : 17664
        },
        {
            "buffer" : 0,
            "byteLength" : 1767974,
            "byteOffset" : 19668
        }
    ],
    "buffers" : [
        {
            "byteLength" : 1787644,
            "uri" : "data:application/octet-stream;base64,"
        }
    ]
}
